<svg aria-hidden="true" style="width:0;height:0;position:absolute;overflow:hidden" xmlns="http://www.w3.org/2000/svg"><defs><symbol id="icon-github" viewBox="0 0 24 24"><path d="M8.713 18.042c-1.268.38-2.06.335-2.583.17a2.282 2.282 0 0 1-.614-.302c-.411-.284-.727-.675-1.119-1.172-.356-.451-.85-1.107-1.551-1.476a2.694 2.694 0 0 0-.604-.232 1 1 0 1 0-.485 1.941c.074.023.155.06.155.06.252.133.487.404.914.946.366.464.856 1.098 1.553 1.579.332.229.711.426 1.149.564 1.015.321 2.236.296 3.76-.162a1 1 0 1 0-.575-1.915zM17 22v-3.792a4.377 4.377 0 0 0-.292-1.942c.777-.171 1.563-.427 2.297-.823 2.083-1.124 3.496-3.242 3.496-6.923a6.408 6.408 0 0 0-1.379-3.981 6.044 6.044 0 0 0-.293-3.933 1 1 0 0 0-.634-.564c-.357-.106-1.732-.309-4.373 1.362a14.24 14.24 0 0 0-6.646-.002C6.537-.267 5.163-.064 4.806.042a.998.998 0 0 0-.635.565 6.044 6.044 0 0 0-.292 3.932A6.414 6.414 0 0 0 2.5 8.556c0 3.622 1.389 5.723 3.441 6.859.752.416 1.56.685 2.357.867a4.395 4.395 0 0 0-.299 1.88L8 22a1 1 0 0 0 2 0v-3.87l-.002-.069a2.357 2.357 0 0 1 .661-1.816 1 1 0 0 0-.595-1.688c-.34-.042-.677-.094-1.006-.159-.79-.156-1.518-.385-2.147-.733-1.305-.723-2.391-2.071-2.41-5.042.013-1.241.419-2.319 1.224-3.165a1 1 0 0 0 .212-1.04 4.045 4.045 0 0 1-.14-2.392c.491.107 1.354.416 2.647 1.282a1 1 0 0 0 .825.133 12.229 12.229 0 0 1 6.47.002.994.994 0 0 0 .818-.135c1.293-.866 2.156-1.175 2.647-1.282a4.041 4.041 0 0 1-.141 2.392c-.129.352-.058.755.213 1.04a4.419 4.419 0 0 1 1.224 3.06c0 3.075-1.114 4.445-2.445 5.163-.623.336-1.343.555-2.123.7-.322.06-.651.106-.983.143a1 1 0 0 0-.608 1.689 2.36 2.36 0 0 1 .662 1.837l-.003.078V22a1 1 0 0 0 2 0z"/></symbol><symbol id="icon-headphones" viewBox="0 0 24 24"><path d="M20 19c0 .276-.111.525-.293.707S19.276 20 19 20h-1c-.276 0-.525-.111-.707-.293S17 19.276 17 19v-3c0-.276.111-.525.293-.707S17.724 15 18 15h2v3zM4 19v-4h2c.276 0 .525.111.707.293S7 15.724 7 16v3c0 .276-.111.525-.293.707S6.276 20 6 20H5c-.276 0-.525-.111-.707-.293S4 19.276 4 19zm-2 0a2.997 2.997 0 0 0 3 3h1a2.997 2.997 0 0 0 3-3v-3a2.997 2.997 0 0 0-3-3H4v-1c0-2.209.894-4.208 2.343-5.657S9.791 4 12 4s4.208.894 5.657 2.343S20 9.791 20 12v1h-2a2.997 2.997 0 0 0-3 3v3a2.997 2.997 0 0 0 3 3h1a2.997 2.997 0 0 0 3-3v-7c0-2.761-1.12-5.263-2.929-7.071S14.761 2 12 2 6.737 3.12 4.929 4.929 2 9.239 2 12v6z"/></symbol><symbol id="icon-search" viewBox="0 0 24 24"><path d="M16.041 15.856a.995.995 0 0 0-.186.186A6.97 6.97 0 0 1 11 18c-1.933 0-3.682-.782-4.95-2.05S4 12.933 4 11s.782-3.682 2.05-4.95S9.067 4 11 4s3.682.782 4.95 2.05S18 9.067 18 11a6.971 6.971 0 0 1-1.959 4.856zm5.666 4.437-3.675-3.675A8.967 8.967 0 0 0 20 11c0-2.485-1.008-4.736-2.636-6.364S13.485 2 11 2 6.264 3.008 4.636 4.636 2 8.515 2 11s1.008 4.736 2.636 6.364S8.515 20 11 20a8.967 8.967 0 0 0 5.618-1.968l3.675 3.675a.999.999 0 1 0 1.414-1.414z"/></symbol><symbol id="icon-creditcards" viewBox="0 0 24 24"><path d="M22 7h-2v-.59C20 5.309 19.104 4 18 4H2C.896 4 0 5.309 0 6.41v9C0 16.514.896 17 2 17h1v2.41C3 20.514 3.896 21 5 21h17c1.104 0 2-.486 2-1.59v-10C24 8.309 23.104 7 22 7zM3 15H2v-4h1v4zm.278-7H2V6h16v1H5c-.736 0-1.375 1-1.722 1zM5 19V9h17l.002 10H5zm11-3h5v-4h-5v4zm1-3h3v2h-3v-2zm-9 5h4v-1H8v1zm-2-6h7v-2H6v2zm7.002 6h.996v-1h-.996v1zM6 18h.996v-1H6v1z"/></symbol></defs></svg>