<svg xmlns="http://www.w3.org/2000/svg" id="filter" data-name="Layer 1" viewBox="0 0 24 24"><path d="M1.5 6.227h2.425c.199 2.411 1.861 2.704 3.132 2.704s2.932-.293 3.132-2.704h12.312a.5.5 0 0 0 0-1H10.188c-.199-2.411-1.861-2.704-3.132-2.704s-2.932.293-3.132 2.704H1.5a.5.5 0 0 0 0 1Zm5.556-2.704c1.362 0 2.151.36 2.151 2.204s-.789 2.204-2.151 2.204-2.151-.36-2.151-2.204.789-2.204 2.151-2.204ZM22.5 11.5h-2.425c-.199-2.411-1.861-2.704-3.132-2.704s-2.932.293-3.132 2.704H1.5a.5.5 0 0 0 0 1h12.312c.199 2.411 1.861 2.704 3.132 2.704s2.932-.293 3.132-2.704h2.425a.5.5 0 0 0 0-1Zm-5.556 2.704c-1.362 0-2.151-.36-2.151-2.204s.789-2.204 2.151-2.204 2.151.36 2.151 2.204-.789 2.204-2.151 2.204ZM22.5 17.773H10.188c-.199-2.411-1.861-2.704-3.132-2.704s-2.932.293-3.132 2.704H1.5a.5.5 0 0 0 0 1h2.425c.199 2.41 1.862 2.703 3.132 2.703s2.932-.293 3.132-2.703h12.312a.5.5 0 0 0 0-1ZM7.056 20.476c-1.362 0-2.151-.36-2.151-2.203s.789-2.204 2.151-2.204 2.151.36 2.151 2.204-.789 2.203-2.151 2.203Z"/></svg>