<svg xmlns="http://www.w3.org/2000/svg" viewBox="0 0 32 32"><path d="M26 2.667H6c-3.308 0-6 2.692-6 6v20a.667.667 0 0 0 1.334 0v-3.333h29.333v3.333a.667.667 0 0 0 1.334 0v-20c0-3.308-2.692-6-6-6zM6 4h20a4.672 4.672 0 0 1 4.667 4.667v10H28v-2A4.672 4.672 0 0 0 23.333 12H20a4.668 4.668 0 0 0-4 2.265A4.668 4.668 0 0 0 12 12H8.667A4.672 4.672 0 0 0 4 16.667v2H1.333v-10A4.672 4.672 0 0 1 6 4zm10.667 14.667v-2A3.337 3.337 0 0 1 20 13.334h3.333a3.337 3.337 0 0 1 3.333 3.333v2h-10zm-11.334 0v-2a3.338 3.338 0 0 1 3.333-3.333h3.333a3.338 3.338 0 0 1 3.333 3.333v2h-10zm-4 5.333v-4h29.333v4H1.333z"/></svg>