<svg xmlns="http://www.w3.org/2000/svg" aria-hidden="true" style="width:0;height:0;position:absolute;overflow:hidden"><defs><symbol id="icon-menu-hamburger" viewBox="0 0 32 32"><path d="M30.769 7.692H1.231a1.23 1.23 0 1 1 0-2.462h29.538a1.23 1.23 0 1 1 0 2.462zm0 9.539H1.231a1.23 1.23 0 1 1 0-2.462h29.538a1.23 1.23 0 1 1 0 2.462zm0 9.538H1.231a1.23 1.23 0 1 1 0-2.462h29.538a1.23 1.23 0 1 1 0 2.462z"/></symbol><symbol id="icon-cross-svgrepo-com-1" viewBox="0 0 32 32"><path d="M0 29.09 2.91 32 16 18.91 29.09 32 32 29.09 18.91 16 32 2.91 29.09 0 16 13.09 2.91 0 0 2.91 13.09 16z"/></symbol><symbol id="icon-viber-circle-svgrepo-com" viewBox="0 0 32 32"><path d="M16 26.667c5.891 0 10.667-4.776 10.667-10.667S21.891 5.333 16 5.333 5.333 10.109 5.333 16 10.109 26.667 16 26.667zm0 2.666C8.636 29.333 2.667 23.364 2.667 16S8.636 2.667 16 2.667 29.333 8.636 29.333 16 23.364 29.333 16 29.333z"/><path d="M20.859 15.205c.016-1.989-1.625-3.813-3.659-4.065l-.133-.02a1.775 1.775 0 0 0-.307-.035h-.003c-.417 0-.528.301-.557.481a.568.568 0 0 0 .081.441l-.001-.002c.139.193.381.227.576.256.057.008.112.015.156.027 1.828.42 2.444 1.083 2.744 2.953.008.047.011.103.013.163.013.223.041.688.527.688a.73.73 0 0 0 .128-.011c.452-.071.437-.496.431-.7a1.033 1.033 0 0 1 0-.148l.003-.026z"/><path d="M16.64 10.409c.053.004.107.008.148.015 3 .477 4.381 1.944 4.764 5.067.007.053.007.117.008.187.004.244.012.751.54.761h.016l.027.001a.509.509 0 0 0 .365-.154c.164-.177.153-.44.144-.653a1.805 1.805 0 0 1-.004-.143c.037-3.193-2.64-6.089-5.731-6.196l-.037.001a.202.202 0 0 1-.036.003c-.031 0-.069-.003-.109-.005a1.945 1.945 0 0 0-.16-.008c-.492 0-.585.36-.597.576-.027.497.439.533.663.549zm4.767 9.116a7.994 7.994 0 0 1-.206-.166l.016.013c-.328-.272-.677-.523-1.013-.765a21.04 21.04 0 0 1-.427-.303l.216.151c-.432-.312-.82-.465-1.187-.465-.493 0-.924.283-1.28.839-.157.245-.349.365-.584.365a1.117 1.117 0 0 1-.477-.124l.006.003c-1.393-.653-2.389-1.653-2.959-2.973-.275-.64-.187-1.056.299-1.396.275-.192.787-.551.751-1.237-.04-.78-1.708-3.127-2.411-3.393a1.313 1.313 0 0 0-.94 0l.009-.003c-.807.28-1.387.773-1.676 1.423-.28.629-.267 1.367.037 2.135.876 2.221 2.107 4.157 3.661 5.755 1.52 1.564 3.389 2.844 5.555 3.807.195.087.4.133.549.168l.127.032a.178.178 0 0 0 .053.008h.018c1.019 0 2.241-.96 2.617-2.056.329-.96-.272-1.433-.755-1.813zm-4.316-6.578c-.173.004-.537.013-.665.395-.059.179-.052.333.021.46.108.187.316.244.504.275.683.113 1.035.504 1.104 1.227.033.339.253.573.536.573h.011a.493.493 0 0 0 .055-.003h-.002c.34-.043.504-.3.489-.767.005-.488-.241-1.04-.661-1.48-.421-.443-.929-.692-1.392-.68z"/></symbol><symbol id="icon-youtube-svgrepo-com" viewBox="0 0 32 32"><path d="M16 0C7.162 0 0 7.162 0 16s7.162 16 16 16 16-7.163 16-16S24.837 0 16 0zm9.988 25.981a13.961 13.961 0 0 1-4.488 3.025 13.982 13.982 0 0 1-5.5 1.106c-1.906 0-3.756-.375-5.5-1.106a14.086 14.086 0 0 1-4.487-3.025 13.961 13.961 0 0 1-3.025-4.488c-.738-1.738-1.113-3.587-1.113-5.494s.375-3.756 1.106-5.5A14.18 14.18 0 0 1 10.5 2.981c1.744-.731 3.594-1.106 5.5-1.106s3.756.375 5.5 1.106a14.102 14.102 0 0 1 4.488 3.025c1.3 1.3 2.319 2.806 3.025 4.488a13.986 13.986 0 0 1 1.106 5.5c0 1.906-.375 3.756-1.106 5.5a14.102 14.102 0 0 1-3.025 4.488z"/><path d="M21.244 10.387H10.756S8 10.387 8 13.143v5.719s0 2.756 2.756 2.756h10.488s2.756 0 2.756-2.756v-5.719s0-2.756-2.756-2.756zm-7.375 8.694v-6.156l5.237 3.081-5.238 3.075z"/></symbol><symbol id="icon-instagram-round-svgrepo-com" viewBox="0 0 32 32"><path d="M16 18.813a2.823 2.823 0 0 0 2.819-2.819 2.822 2.822 0 0 0-2.812-2.819c-.937 0-1.769.463-2.281 1.175a2.822 2.822 0 0 0-.531 1.644 2.81 2.81 0 0 0 2.806 2.819zm6.15-6.257V9.843h-.35l-2.363.006.012 2.713z"/><path d="M20.375 16c0 2.413-1.962 4.375-4.375 4.375S11.625 18.413 11.625 16c0-.581.119-1.137.325-1.644H9.563v6.55c0 .844.688 1.531 1.531 1.531h9.813c.844 0 1.531-.688 1.531-1.531v-6.55h-2.387c.212.506.325 1.063.325 1.644z"/><path d="M16 0C7.162 0 0 7.162 0 16s7.162 16 16 16 16-7.163 16-16S24.837 0 16 0zm8 14.356v6.55A3.097 3.097 0 0 1 20.906 24h-9.813a3.097 3.097 0 0 1-3.094-3.094v-9.819a3.097 3.097 0 0 1 3.094-3.094h9.813A3.097 3.097 0 0 1 24 11.087v3.269z"/></symbol><symbol id="icon-telegram-desktop-svgrepo-com" viewBox="0 0 32 32"><path d="M16 2.712C8.661 2.712 2.712 8.661 2.712 16S8.661 29.288 16 29.288 29.288 23.339 29.288 16 23.339 2.712 16 2.712zm6.883 5.968c.54-.02.949.469.73 1.347L20.98 22.435c-.184.882-.717 1.093-1.455.686l-4.011-2.964-1.928 1.875c-.223.218-.401.401-.803.401-.52 0-.431-.197-.611-.692l-1.476-4.523-3.856-1.204c-.857-.262-.863-.851.192-1.274l15.462-5.964c.132-.06.264-.092.389-.096zm-2.452 2.639a.858.858 0 0 0-.437.139l-8.692 5.484 1.464 4.491.29-3.091 7.443-6.715c.204-.181.125-.304-.068-.307z"/></symbol><symbol id="icon-facebook-svgrepo-com" viewBox="0 0 32 32"><path d="M26.667 16.067a10.66 10.66 0 0 0-6.29-9.596A10.668 10.668 0 0 0 5.744 19.126a10.67 10.67 0 0 0 8.59 7.608v-7.56h-2.667v-3.107h2.667v-2.36a3.779 3.779 0 0 1 1.021-3.029 3.77 3.77 0 0 1 2.979-1.158c.8.011 1.598.082 2.387.213V12.4h-1.333a1.551 1.551 0 0 0-1.645.998c-.08.217-.111.45-.089.681v2.013h2.96l-.48 3.107h-2.467v7.467a10.67 10.67 0 0 0 9-10.6z"/></symbol></defs></svg>