<svg aria-hidden="true" style="width:0;height:0;position:absolute;overflow:hidden" xmlns="http://www.w3.org/2000/svg"><defs><symbol id="icon-profile-user-account-svgrepo-com-3" viewBox="0 0 32 32"><path stroke-linejoin="round" stroke-miterlimit="10" stroke-width="2" d="M1 16C1 7.716 7.716 1 16 1s15 6.716 15 15c0 8.284-6.716 15-15 15S1 24.284 1 16z"/><path stroke-linejoin="round" stroke-miterlimit="10" stroke-width="2" d="M26 27c0-5.523-4.477-10-10-10S6 21.477 6 27"/><path stroke-linejoin="round" stroke-miterlimit="10" stroke-width="2" d="M22 11a6 6 0 1 1-12 0 6 6 0 0 1 12 0z"/></symbol><symbol id="icon-profile-user-account-svgrepo-com" viewBox="0 0 32 32"><path stroke-linejoin="round" stroke-miterlimit="10" d="M22 11a6 6 0 1 1-12 0 6 6 0 0 1 12 0z"/></symbol><symbol id="icon-profile-user-account-svgrepo-com-1" viewBox="0 0 32 32"><path stroke-linejoin="round" stroke-miterlimit="10" d="M22 11a6 6 0 1 1-12 0 6 6 0 0 1 12 0z"/></symbol></defs></svg>