<svg aria-hidden="true" style="width:0;height:0;position:absolute;overflow:hidden" xmlns="http://www.w3.org/2000/svg"><defs><symbol id="icon-calendar-svgrepo-com" viewBox="0 0 32 32"><path fill="#494c4e" style="fill:var(--color1,#494c4e)" d="M29.333 5.333h-4v-4C25.333.6 24.746 0 24 0c-.733 0-1.333.6-1.333 1.333v4H9.334v-4C9.334.6 8.747 0 8.001 0c-.733 0-1.333.6-1.333 1.333v4h-4A2.675 2.675 0 0 0 .001 8v21.333C.001 30.8 1.201 32 2.668 32h26.667c1.467 0 2.667-1.2 2.667-2.667V8c0-1.467-1.2-2.667-2.667-2.667zm0 23.334a.66.66 0 0 1-.667.667H3.333a.669.669 0 0 1-.667-.667V16h26.667v12.667zm0-15.334H2.666V8.666a.67.67 0 0 1 .667-.667h3.333v1.333c0 .733.6 1.333 1.333 1.333s1.333-.6 1.333-1.333V7.999h13.333v1.333c0 .733.6 1.333 1.333 1.333s1.333-.6 1.333-1.333V7.999h3.333a.66.66 0 0 1 .667.667v4.667z"/></symbol><symbol id="icon-location" viewBox="0 0 32 32"><path d="M16 0C10.477 0 6 4.477 6 10c0 10 10 22 10 22s10-12 10-22c0-5.523-4.477-10-10-10zm0 16a6 6 0 1 1 0-12 6 6 0 0 1 0 12z"/></symbol><symbol id="icon-search" viewBox="0 0 32 32"><path d="m31.008 27.231-7.58-6.447c-.784-.705-1.622-1.029-2.299-.998a11.954 11.954 0 0 0 2.87-7.787c0-6.627-5.373-12-12-12s-12 5.373-12 12 5.373 12 12 12c2.972 0 5.691-1.081 7.787-2.87-.031.677.293 1.515.998 2.299l6.447 7.58c1.104 1.226 2.907 1.33 4.007.23s.997-2.903-.23-4.007zM12 20a8 8 0 1 1 0-16 8 8 0 0 1 0 16z"/></symbol></defs></svg>