<svg aria-hidden="true" style="position: absolute; width: 0; height: 0; overflow: hidden;" version="1.1" xmlns="http://www.w3.org/2000/svg" xmlns:xlink="http://www.w3.org/1999/xlink">
<defs>
<symbol id="icon-menu-hamburger" viewBox="0 0 32 32">
<path d="M30.769 7.692h-29.538c-0.68 0-1.231-0.551-1.231-1.231s0.551-1.231 1.231-1.231v0h29.538c0.68 0 1.231 0.551 1.231 1.231s-0.551 1.231-1.231 1.231v0z"></path>
<path d="M30.769 17.231h-29.538c-0.68 0-1.231-0.551-1.231-1.231s0.551-1.231 1.231-1.231v0h29.538c0.68 0 1.231 0.551 1.231 1.231s-0.551 1.231-1.231 1.231v0z"></path>
<path d="M30.769 26.769h-29.538c-0.68 0-1.231-0.551-1.231-1.231s0.551-1.231 1.231-1.231v0h29.538c0.68 0 1.231 0.551 1.231 1.231s-0.551 1.231-1.231 1.231v0z"></path>
</symbol>
<symbol id="icon-cross-svgrepo-com-1" viewBox="0 0 32 32">
<path d="M0 29.090l2.91 2.91 13.090-13.090 13.090 13.090 2.91-2.91-13.090-13.090 13.090-13.090-2.91-2.91-13.090 13.090-13.090-13.090-2.91 2.91 13.090 13.090z"></path>
</symbol>
<symbol id="icon-viber-circle-svgrepo-com" viewBox="0 0 32 32">
<path d="M16 26.667c5.891 0 10.667-4.776 10.667-10.667s-4.776-10.667-10.667-10.667v0c-5.891 0-10.667 4.776-10.667 10.667s4.776 10.667 10.667 10.667v0zM16 29.333c-7.364 0-13.333-5.969-13.333-13.333s5.969-13.333 13.333-13.333 13.333 5.969 13.333 13.333-5.969 13.333-13.333 13.333z"></path>
<path d="M20.859 15.205c0.016-1.989-1.625-3.813-3.659-4.065l-0.133-0.020c-0.091-0.019-0.198-0.032-0.307-0.035l-0.003-0c-0.417 0-0.528 0.301-0.557 0.481-0.009 0.037-0.014 0.080-0.014 0.125 0 0.117 0.035 0.226 0.095 0.316l-0.001-0.002c0.139 0.193 0.381 0.227 0.576 0.256 0.057 0.008 0.112 0.015 0.156 0.027 1.828 0.42 2.444 1.083 2.744 2.953 0.008 0.047 0.011 0.103 0.013 0.163 0.013 0.223 0.041 0.688 0.527 0.688 0.040 0 0.083-0.003 0.128-0.011 0.452-0.071 0.437-0.496 0.431-0.7-0.003-0.057-0.004-0.112 0-0.148 0.001-0.008 0.002-0.017 0.003-0.026v-0z"></path>
<path d="M16.64 10.409c0.053 0.004 0.107 0.008 0.148 0.015 3 0.477 4.381 1.944 4.764 5.067 0.007 0.053 0.007 0.117 0.008 0.187 0.004 0.244 0.012 0.751 0.54 0.761h0.016c0.008 0 0.018 0.001 0.027 0.001 0.143 0 0.272-0.059 0.365-0.154l0-0c0.164-0.177 0.153-0.44 0.144-0.653-0.003-0.051-0.005-0.1-0.004-0.143 0.037-3.193-2.64-6.089-5.731-6.196l-0.037 0.001c-0.011 0.002-0.023 0.003-0.036 0.003h-0c-0.031 0-0.069-0.003-0.109-0.005-0.048-0.004-0.104-0.008-0.16-0.008-0.492 0-0.585 0.36-0.597 0.576-0.027 0.497 0.439 0.533 0.663 0.549zM21.407 19.525c-0.083-0.065-0.145-0.115-0.206-0.166l0.016 0.013c-0.328-0.272-0.677-0.523-1.013-0.765-0.29-0.203-0.359-0.253-0.427-0.303l0.216 0.151c-0.432-0.312-0.82-0.465-1.187-0.465-0.493 0-0.924 0.283-1.28 0.839-0.157 0.245-0.349 0.365-0.584 0.365-0.173-0.006-0.334-0.050-0.477-0.124l0.006 0.003c-1.393-0.653-2.389-1.653-2.959-2.973-0.275-0.64-0.187-1.056 0.299-1.396 0.275-0.192 0.787-0.551 0.751-1.237-0.040-0.78-1.708-3.127-2.411-3.393-0.139-0.054-0.3-0.086-0.469-0.086-0.166 0-0.325 0.030-0.471 0.086l0.009-0.003c-0.807 0.28-1.387 0.773-1.676 1.423-0.28 0.629-0.267 1.367 0.037 2.135 0.876 2.221 2.107 4.157 3.661 5.755 1.52 1.564 3.389 2.844 5.555 3.807 0.195 0.087 0.4 0.133 0.549 0.168l0.127 0.032c0.016 0.005 0.034 0.008 0.053 0.008h0.018c1.019 0 2.241-0.96 2.617-2.056 0.329-0.96-0.272-1.433-0.755-1.813zM17.091 12.947c-0.173 0.004-0.537 0.013-0.665 0.395-0.059 0.179-0.052 0.333 0.021 0.46 0.108 0.187 0.316 0.244 0.504 0.275 0.683 0.113 1.035 0.504 1.104 1.227 0.033 0.339 0.253 0.573 0.536 0.573 0.003 0 0.007 0 0.011 0 0.019 0 0.037-0.001 0.055-0.003l-0.002 0c0.34-0.043 0.504-0.3 0.489-0.767 0.005-0.488-0.241-1.040-0.661-1.48-0.421-0.443-0.929-0.692-1.392-0.68z"></path>
</symbol>
<symbol id="icon-youtube-svgrepo-com" viewBox="0 0 32 32">
<path d="M16 0c-8.838 0-16 7.162-16 16s7.162 16 16 16 16-7.163 16-16-7.163-16-16-16zM25.988 25.981c-1.3 1.3-2.806 2.319-4.488 3.025-1.738 0.738-3.587 1.106-5.5 1.106-1.906 0-3.756-0.375-5.5-1.106-1.681-0.712-3.194-1.731-4.487-3.025-1.3-1.3-2.319-2.806-3.025-4.488-0.738-1.738-1.113-3.587-1.113-5.494s0.375-3.756 1.106-5.5c0.712-1.681 1.731-3.194 3.025-4.487 1.306-1.3 2.813-2.319 4.494-3.031 1.744-0.731 3.594-1.106 5.5-1.106s3.756 0.375 5.5 1.106c1.681 0.712 3.194 1.731 4.488 3.025 1.3 1.3 2.319 2.806 3.025 4.488 0.738 1.738 1.106 3.588 1.106 5.5 0 1.906-0.375 3.756-1.106 5.5-0.712 1.681-1.731 3.194-3.025 4.488z"></path>
<path d="M21.244 10.387h-10.488c0 0-2.756 0-2.756 2.756v5.719c0 0 0 2.756 2.756 2.756h10.488c0 0 2.756 0 2.756-2.756v-5.719c0 0 0-2.756-2.756-2.756zM13.869 19.081v-6.156l5.237 3.081-5.238 3.075z"></path>
</symbol>
<symbol id="icon-instagram-round-svgrepo-com" viewBox="0 0 32 32">
<path d="M16 18.813c1.55 0 2.819-1.262 2.819-2.819 0-0.613-0.2-1.181-0.531-1.644-0.512-0.706-1.344-1.175-2.281-1.175s-1.769 0.463-2.281 1.175c-0.331 0.463-0.531 1.031-0.531 1.644-0.006 1.556 1.256 2.819 2.806 2.819z"></path>
<path d="M22.15 12.556v-2.713h-0.35l-2.363 0.006 0.012 2.713z"></path>
<path d="M20.375 16c0 2.413-1.962 4.375-4.375 4.375s-4.375-1.962-4.375-4.375c0-0.581 0.119-1.137 0.325-1.644h-2.387v6.55c0 0.844 0.688 1.531 1.531 1.531h9.813c0.844 0 1.531-0.688 1.531-1.531v-6.55h-2.387c0.212 0.506 0.325 1.063 0.325 1.644z"></path>
<path d="M16 0c-8.838 0-16 7.162-16 16s7.162 16 16 16 16-7.163 16-16-7.163-16-16-16zM24 14.356v6.55c0 1.706-1.387 3.094-3.094 3.094h-9.813c-1.706 0-3.094-1.387-3.094-3.094v-9.819c0-1.706 1.387-3.094 3.094-3.094h9.813c1.706 0 3.094 1.387 3.094 3.094v3.269z"></path>
</symbol>
<symbol id="icon-telegram-desktop-svgrepo-com" viewBox="0 0 32 32">
<path d="M16 2.712c-7.339 0-13.288 5.949-13.288 13.288s5.949 13.288 13.288 13.288c7.339-0 13.288-5.949 13.288-13.288s-5.949-13.288-13.288-13.288zM22.883 8.68c0.54-0.020 0.949 0.469 0.73 1.347l-2.633 12.408c-0.184 0.882-0.717 1.093-1.455 0.686l-4.011-2.964c-0.942 0.916-1.786 1.736-1.928 1.875-0.223 0.218-0.401 0.401-0.803 0.401-0.52 0-0.431-0.197-0.611-0.692l-1.476-4.523-3.856-1.204c-0.857-0.262-0.863-0.851 0.192-1.274l15.462-5.964c0.132-0.060 0.264-0.092 0.389-0.096zM20.431 11.319c-0.116-0.002-0.274 0.040-0.437 0.139l-8.692 5.484 1.464 4.491 0.29-3.091 7.443-6.715c0.204-0.181 0.125-0.304-0.068-0.307z"></path>
</symbol>
<symbol id="icon-facebook-svgrepo-com" viewBox="0 0 32 32">
<path d="M26.667 16.067c-0.025-2.033-0.63-4.016-1.745-5.716s-2.691-3.047-4.545-3.88c-1.854-0.834-3.908-1.121-5.919-0.827s-3.897 1.157-5.435 2.487-2.663 3.071-3.244 5.019c-0.581 1.948-0.593 4.022-0.035 5.976s1.663 3.709 3.185 5.057c1.522 1.348 3.397 2.233 5.405 2.551v-7.56h-2.667v-3.107h2.667v-2.36c-0.062-0.549-0.002-1.104 0.174-1.628s0.466-1.001 0.847-1.401c0.381-0.399 0.846-0.71 1.361-0.91s1.067-0.285 1.618-0.248c0.8 0.011 1.598 0.082 2.387 0.213v2.667h-1.333c-0.23-0.029-0.463-0.006-0.683 0.067s-0.42 0.195-0.587 0.356-0.294 0.358-0.375 0.575c-0.080 0.217-0.111 0.45-0.089 0.681v2.013h2.96l-0.48 3.107h-2.467v7.467c2.52-0.399 4.813-1.687 6.465-3.632s2.551-4.417 2.535-6.968z"></path>
</symbol>
</defs>
</svg>
