<svg aria-hidden="true" style="position: absolute; width: 0; height: 0; overflow: hidden;" version="1.1" xmlns="http://www.w3.org/2000/svg" xmlns:xlink="http://www.w3.org/1999/xlink">
<defs>
<symbol id="icon-calendar-svgrepo-com" viewBox="0 0 32 32">
<path fill="#494c4e" style="fill: var(--color1, #494c4e)" d="M29.333 5.333h-4v-4c0-0.733-0.587-1.333-1.333-1.333-0.733 0-1.333 0.6-1.333 1.333v4h-13.333v-4c0-0.733-0.587-1.333-1.333-1.333-0.733 0-1.333 0.6-1.333 1.333v4h-4c-1.467 0-2.667 1.2-2.667 2.667v21.333c0 1.467 1.2 2.667 2.667 2.667h26.667c1.467 0 2.667-1.2 2.667-2.667v-21.333c0-1.467-1.2-2.667-2.667-2.667zM29.333 28.667c0 0.373-0.293 0.667-0.667 0.667h-25.333c-0.36 0-0.667-0.293-0.667-0.667v-12.667h26.667v12.667zM29.333 13.333h-26.667v-4.667c0-0.373 0.307-0.667 0.667-0.667h3.333v1.333c0 0.733 0.6 1.333 1.333 1.333s1.333-0.6 1.333-1.333v-1.333h13.333v1.333c0 0.733 0.6 1.333 1.333 1.333s1.333-0.6 1.333-1.333v-1.333h3.333c0.373 0 0.667 0.293 0.667 0.667v4.667z"></path>
</symbol>
<symbol id="icon-location" viewBox="0 0 32 32">
<path d="M16 0c-5.523 0-10 4.477-10 10 0 10 10 22 10 22s10-12 10-22c0-5.523-4.477-10-10-10zM16 16c-3.314 0-6-2.686-6-6s2.686-6 6-6 6 2.686 6 6-2.686 6-6 6z"></path>
</symbol>
<symbol id="icon-search" viewBox="0 0 32 32">
<path d="M31.008 27.231l-7.58-6.447c-0.784-0.705-1.622-1.029-2.299-0.998 1.789-2.096 2.87-4.815 2.87-7.787 0-6.627-5.373-12-12-12s-12 5.373-12 12 5.373 12 12 12c2.972 0 5.691-1.081 7.787-2.87-0.031 0.677 0.293 1.515 0.998 2.299l6.447 7.58c1.104 1.226 2.907 1.33 4.007 0.23s0.997-2.903-0.23-4.007zM12 20c-4.418 0-8-3.582-8-8s3.582-8 8-8 8 3.582 8 8-3.582 8-8 8z"></path>
</symbol>
</defs>
</svg>
